<?xml version="1.0" encoding="UTF-8" standalone="no"?>
<svg
   xmlns:dc="http://purl.org/dc/elements/1.1/"
   xmlns:cc="http://creativecommons.org/ns#"
   xmlns:rdf="http://www.w3.org/1999/02/22-rdf-syntax-ns#"
   xmlns:svg="http://www.w3.org/2000/svg"
   xmlns="http://www.w3.org/2000/svg"
   xmlns:xlink="http://www.w3.org/1999/xlink"
   xmlns:sodipodi="http://sodipodi.sourceforge.net/DTD/sodipodi-0.dtd"
   xmlns:inkscape="http://www.inkscape.org/namespaces/inkscape"
   inkscape:version="1.0 (4035a4fb49, 2020-05-01)"
   sodipodi:docname="caddy-black.svg"
   id="svg11"
   version="1.1"
   viewBox="0 0 2400 400"
   height="400"
   width="2400">
  <metadata
     id="metadata15">
    <rdf:RDF>
      <cc:Work
         rdf:about="">
        <dc:format>image/svg+xml</dc:format>
        <dc:type
           rdf:resource="http://purl.org/dc/dcmitype/StillImage" />
        <dc:title>CaddyServer</dc:title>
      </cc:Work>
    </rdf:RDF>
  </metadata>
  <sodipodi:namedview
     inkscape:document-rotation="0"
     inkscape:current-layer="svg11"
     inkscape:window-maximized="1"
     inkscape:window-y="-8"
     inkscape:window-x="-8"
     inkscape:cy="322.63435"
     inkscape:cx="1158.9274"
     inkscape:zoom="0.35355339"
     inkscape:pagecheckerboard="true"
     showgrid="false"
     id="namedview13"
     inkscape:window-height="705"
     inkscape:window-width="1366"
     inkscape:pageshadow="2"
     inkscape:pageopacity="0"
     guidetolerance="10"
     gridtolerance="10"
     objecttolerance="10"
     borderopacity="1"
     bordercolor="#666666"
     pagecolor="#fffff0" />
  <!-- Generator: Sketch 42 (36781) - http://www.bohemiancoding.com/sketch -->
  <title
     id="title2">CaddyServer</title>
  <desc
     id="desc4">Created with Sketch.</desc>
  <defs
     id="defs6">
    <linearGradient
       inkscape:collect="always"
       id="linearGradient4642">
      <stop
         style="stop-color:#00e888;stop-opacity:1"
         offset="0"
         id="stop4638" />
      <stop
         style="stop-color:#008fef;stop-opacity:0.49662162"
         offset="1"
         id="stop4640" />
    </linearGradient>
    <linearGradient
       id="linearGradient4563"
       inkscape:collect="always">
      <stop
         id="stop4559"
         offset="0"
         style="stop-color:#ffffff;stop-opacity:0" />
      <stop
         id="stop4561"
         offset="1"
         style="stop-color:#00e888;stop-opacity:1" />
    </linearGradient>
    <linearGradient
       id="linearGradient4541"
       inkscape:collect="always">
      <stop
         id="stop4537"
         offset="0"
         style="stop-color:#ffffff;stop-opacity:0.01507538" />
      <stop
         id="stop4539"
         offset="1"
         style="stop-color:#008fef;stop-opacity:1" />
    </linearGradient>
    <linearGradient
       gradientTransform="matrix(0.78517374,0,0,0.57423104,744.58143,-269.40792)"
       y2="159.75073"
       x2="224.92264"
       y1="-59.211205"
       x1="-11.60499"
       gradientUnits="userSpaceOnUse"
       id="linearGradient4545"
       xlink:href="#linearGradient4541"
       inkscape:collect="always" />
    <linearGradient
       gradientTransform="matrix(0.54488868,0,0,0.54488868,724.22264,-308.11035)"
       gradientUnits="userSpaceOnUse"
       y2="30.833878"
       x2="181.29288"
       y1="30.833878"
       x1="0"
       id="linearGradient4555"
       xlink:href="#linearGradient4541"
       inkscape:collect="always" />
    <linearGradient
       gradientTransform="matrix(0.54488868,0,0,0.54488868,724.22264,-308.11035)"
       gradientUnits="userSpaceOnUse"
       y2="30.833878"
       x2="181.17673"
       y1="30.833878"
       x1="0.11615282"
       id="linearGradient4565"
       xlink:href="#linearGradient4563"
       inkscape:collect="always" />
    <linearGradient
       y2="-91.380737"
       x2="19.638487"
       y1="41.030766"
       x1="-3.394875"
       gradientTransform="matrix(6.4892199,0,0,8.6588854,802.48933,188.09121)"
       gradientUnits="userSpaceOnUse"
       id="linearGradient4636"
       xlink:href="#linearGradient4642"
       inkscape:collect="always" />
  </defs>
  <rect
     inkscape:export-ydpi="96"
     inkscape:export-xdpi="96"
     y="3.749125"
     x="727.97174"
     height="392.99493"
     width="1082.2792"
     id="rect4567"
     style="opacity:1;fill:url(#linearGradient4636);fill-opacity:1;stroke:#1a1a1a;stroke-width:7.49821;stroke-miterlimit:4;stroke-dasharray:none;stroke-opacity:1" />
  <g
     inkscape:export-ydpi="96"
     inkscape:export-xdpi="96"
     transform="matrix(6.7381785,0,0,6.7381785,677.74587,10.411683)"
     style="fill:none;fill-rule:evenodd;stroke:none;stroke-width:1"
     id="Page-1">
    <g
       style="fill:#000000"
       transform="translate(-514,-2234)"
       id="Desktop-HD">
      <path
         style="stroke-width:0.884165"
         inkscape:connector-curvature="0"
         id="Caddy-Copy-20"
         d="m 542.90396,2271.2269 c 2.15737,0 4.0141,-0.3625 5.57025,-1.0876 1.55613,-0.7249 3.18299,-1.8832 4.88059,-3.4747 l 4.03179,4.1378 c -3.92571,4.3502 -8.69132,6.5252 -14.29695,6.5252 -5.60564,0 -10.2563,-1.8036 -13.95213,-5.411 -3.69583,-3.6075 -5.54372,-8.1697 -5.54372,-13.6869 0,-5.5173 1.88326,-10.1149 5.64982,-13.793 3.76656,-3.6781 8.52333,-5.5172 14.27043,-5.5172 5.7471,0 10.54807,2.1219 14.40305,6.3659 l -3.97874,4.3501 c -1.76834,-1.6976 -3.4394,-2.8823 -5.01322,-3.5543 -1.57382,-0.6719 -3.42171,-1.0079 -5.54372,-1.0079 -3.74888,0 -6.89647,1.2112 -9.44288,3.6338 -2.54641,2.4227 -3.8196,5.5172 -3.8196,9.2838 0,3.7666 1.26435,6.9142 3.79307,9.4429 2.52873,2.5287 5.52602,3.7931 8.99196,3.7931 z m 41.10612,5.6763 h -5.41109 v -3.7665 c -2.33422,2.794 -5.46413,4.1909 -9.38984,4.1909 -2.93545,0 -5.36688,-0.8311 -7.29436,-2.4934 -1.9275,-1.6622 -2.89123,-3.8814 -2.89123,-6.6577 0,-2.7763 1.02562,-4.8541 3.0769,-6.2334 2.05127,-1.3793 4.82753,-2.0689 8.32884,-2.0689 h 7.69224 v -1.061 c 0,-3.7489 -2.08661,-5.6233 -6.25989,-5.6233 -2.61715,0 -5.34035,0.9548 -8.16969,2.8647 l -2.6525,-3.7135 c 3.43058,-2.7232 7.32087,-4.0849 11.67099,-4.0849 3.32447,0 6.03883,0.84 8.14316,2.5199 2.10432,1.68 3.15647,4.3236 3.15647,7.931 z m -5.9416,-10.5038 v -2.3873 h -6.68428 c -4.27939,0 -6.41905,1.3439 -6.41905,4.0318 0,1.3793 0.5305,2.4314 1.5915,3.1565 1.061,0.7249 2.53755,1.0875 4.42967,1.0875 1.89213,0 3.5455,-0.5305 4.96016,-1.5916 1.41468,-1.0609 2.122,-2.4933 2.122,-4.2969 z m 13.361,6.8965 c -2.6525,-2.6879 -3.97874,-6.2245 -3.97874,-10.6101 0,-4.3854 1.36161,-7.8867 4.08485,-10.5039 2.72324,-2.6171 5.96809,-3.9257 9.73466,-3.9257 3.76656,0 6.79921,1.5916 9.09806,4.7745 v -15.4905 h 5.94159 v 39.363 h -5.94159 v -4.2439 c -2.19274,3.1122 -5.39339,4.6683 -9.60204,4.6683 -3.57204,0 -6.68428,-1.3439 -9.33679,-4.0317 z m 4.5623,-3.7666 c 1.73297,1.6976 3.76653,2.5463 6.10074,2.5463 2.33421,0 4.31472,-0.8576 5.9416,-2.5729 1.62686,-1.7153 2.44029,-3.9168 2.44029,-6.6046 0,-2.6879 -0.81343,-4.9337 -2.44029,-6.7374 -1.62688,-1.8037 -3.62508,-2.7055 -5.99465,-2.7055 -2.36958,0 -4.40313,0.9018 -6.10074,2.7055 -1.69761,1.8037 -2.54639,4.0583 -2.54639,6.7639 0,2.7055 0.86647,4.9071 2.59944,6.6047 z m 28.05583,3.7666 c -2.65251,-2.6879 -3.97874,-6.2245 -3.97874,-10.6101 0,-4.3854 1.3616,-7.8867 4.08484,-10.5039 2.72324,-2.6171 5.96809,-3.9257 9.73467,-3.9257 3.76656,0 6.79921,1.5916 9.09805,4.7745 v -15.4905 h 5.94159 v 39.363 h -5.94159 v -4.2439 c -2.19274,3.1122 -5.39339,4.6683 -9.60203,4.6683 -3.57205,0 -6.68428,-1.3439 -9.33679,-4.0317 z m 4.56229,-3.7666 c 1.73298,1.6976 3.76653,2.5463 6.10075,2.5463 2.3342,0 4.31471,-0.8576 5.94159,-2.5729 1.62687,-1.7153 2.44029,-3.9168 2.44029,-6.6046 0,-2.6879 -0.81342,-4.9337 -2.44029,-6.7374 -1.62688,-1.8037 -3.62507,-2.7055 -5.99465,-2.7055 -2.36957,0 -4.40313,0.9018 -6.10074,2.7055 -1.6976,1.8037 -2.5464,4.0583 -2.5464,6.7639 0,2.7055 0.86648,4.9071 2.59945,6.6047 z m 29.43513,18.6205 c -2.58177,0 -4.91595,-0.9372 -7.00259,-2.8117 l 2.70555,-4.8275 c 1.23784,1.1672 2.51986,1.7507 3.84612,1.7507 1.32625,0 2.40493,-0.4775 3.23605,-1.4324 0.83112,-0.9549 1.24666,-1.9982 1.24666,-3.13 0,-0.495 -3.80187,-10.1678 -11.40572,-29.0183 h 6.36598 l 8.43494,20.7956 8.43494,-20.7956 h 6.36599 l -13.68688,33.5276 c -0.81344,1.8391 -1.98052,3.2891 -3.50129,4.3501 -1.52078,1.061 -3.20068,1.5915 -5.03975,1.5915 z" />
    </g>
  </g>
  <g
     style="display:inline"
     transform="translate(0,677)"
     inkscape:label="Layer 1"
     id="layer1"
     inkscape:groupmode="layer">
    <rect
       y="-307.56384"
       x="724.55835"
       height="32.509045"
       width="98.112968"
       id="rect3730"
       style="opacity:0;fill:url(#linearGradient4555);fill-opacity:1;stroke:url(#linearGradient4545);stroke-width:0.671472" />
    <rect
       y="-307.56384"
       x="724.55835"
       height="32.509045"
       width="98.112968"
       id="rect4557"
       style="opacity:0;fill:url(#linearGradient4565);fill-opacity:1;stroke:#000fef;stroke-width:0.544889;stroke-opacity:1" />
  </g>
</svg>
