<?xml version="1.0" encoding="UTF-8" standalone="no"?>
<svg
   xmlns:dc="http://purl.org/dc/elements/1.1/"
   xmlns:cc="http://creativecommons.org/ns#"
   xmlns:rdf="http://www.w3.org/1999/02/22-rdf-syntax-ns#"
   xmlns:svg="http://www.w3.org/2000/svg"
   xmlns="http://www.w3.org/2000/svg"
   xmlns:sodipodi="http://sodipodi.sourceforge.net/DTD/sodipodi-0.dtd"
   xmlns:inkscape="http://www.inkscape.org/namespaces/inkscape"
   width="9070.8662"
   height="1511.811"
   viewBox="0 0 2400 400"
   version="1.1"
   id="svg8"
   inkscape:version="1.0.2-2 (e86c870879, 2021-01-15)"
   sodipodi:docname="banner.svg">
  <defs
     id="defs2" />
  <sodipodi:namedview
     id="base"
     pagecolor="#ffffff"
     bordercolor="#666666"
     borderopacity="1.0"
     inkscape:pageopacity="0.0"
     inkscape:pageshadow="2"
     inkscape:zoom="0.0875"
     inkscape:cx="8961.2567"
     inkscape:cy="589.60154"
     inkscape:document-units="mm"
     inkscape:current-layer="layer1"
     inkscape:document-rotation="0"
     showgrid="false"
     units="px"
     inkscape:window-width="1920"
     inkscape:window-height="1001"
     inkscape:window-x="-9"
     inkscape:window-y="-9"
     inkscape:window-maximized="1" />
  <metadata
     id="metadata5">
    <rdf:RDF>
      <cc:Work
         rdf:about="">
        <dc:format>image/svg+xml</dc:format>
        <dc:type
           rdf:resource="http://purl.org/dc/dcmitype/StillImage" />
        <dc:title></dc:title>
      </cc:Work>
    </rdf:RDF>
  </metadata>
  <g
     inkscape:label="Capa 1"
     inkscape:groupmode="layer"
     id="layer1">
    <path
       fill="#ffffff"
       d="m 938.68602,310.82241 h -32.8565 c -3.6507,-18.25359 -19.91295,-32.19267 -39.16213,-32.19267 -14.27099,0 -26.55068,7.30151 -33.85207,18.25358 v 0.33241 c -11.94778,-5.9739 -22.89999,-14.27099 -32.19267,-23.89558 -11.28398,-11.28398 -17.58978,-21.57238 -20.24489,-28.21008 7.30151,-1.65939 13.93909,-5.64199 19.2493,-11.28398 6.96948,-7.30138 10.62018,-17.25788 10.62018,-27.21437 v -23.89558 c 0,-28.21007 9.29281,-56.08825 26.88259,-78.32444 24.89116,-31.860767 61.73019,-49.782451 101.55619,-49.782451 34.18405,0 66.37658,13.27528 90.60408,37.502762 24.2275,24.227489 37.5028,56.420159 37.5028,90.604129 0,34.18385 -13.2753,66.37653 -37.5028,90.60401 a 128.90337,128.90337 0 0 1 -90.60408,37.50276 z"
       id="path2"
       style="stroke-width:3.31883" />
    <path
       d="m 1082.7233,182.38374 c 0,-38.49848 -14.9347,-74.67375 -42.1491,-101.888116 A 145.63028,145.63028 0 0 0 938.68602,38.346458 c -44.1405,0 -85.29391,19.912982 -113.50398,55.424446 -20.24489,25.554976 -30.86519,57.083966 -30.86519,89.608416 v 23.2319 c 0,11.94779 -8.2971,23.23177 -24.89116,24.22736 -3.9826,0.3324 -7.30151,2.98701 -7.30151,6.96961 -0.66356,10.95207 10.9522,30.86505 26.88258,46.79544 10.95208,11.28411 23.89558,20.24489 37.83467,27.21449 a 40.09147,40.09147 0 0 0 39.49406,47.12735 c 19.58108,0 35.51143,-13.60718 39.16213,-31.86077 h 33.5203 c 4.3144,22.56809 27.8782,38.16657 53.10135,29.53757 21.90423,-7.30139 31.52883,-32.19268 23.56363,-52.43744 8.629,-5.64211 16.9261,-12.27969 24.5594,-19.5812 a 143.37347,143.37347 0 0 0 42.481,-102.21989 z M 938.68602,310.82241 h -32.8565 c -3.6507,-18.25359 -19.91295,-32.19267 -39.16213,-32.19267 -14.27099,0 -26.55068,7.30151 -33.85207,18.25358 v 0.33241 c -11.94778,-5.9739 -22.89999,-14.27099 -32.19267,-23.89558 -11.28398,-11.28398 -17.58978,-21.57238 -20.24489,-28.21008 7.30151,-1.65939 13.93909,-5.64199 19.2493,-11.28398 6.96948,-7.30138 10.62018,-17.25788 10.62018,-27.21437 v -23.89558 c 0,-28.21007 9.29281,-56.08825 26.88259,-78.32444 24.89116,-31.860767 61.73019,-49.782451 101.55619,-49.782451 34.18405,0 66.37658,13.27528 90.60408,37.502762 24.2275,24.227489 37.5028,56.420159 37.5028,90.604129 0,34.18385 -13.2753,66.37653 -37.5028,90.60401 a 128.90337,128.90337 0 0 1 -90.60408,37.50276 z"
       id="path4"
       style="stroke-width:3.31883" />
    <circle
       cx="1002.7344"
       cy="150.52431"
       id="circle6"
       style="stroke-width:3.31883"
       r="15.930386" />
    <circle
       cx="906.48846"
       cy="150.52431"
       id="circle8"
       style="stroke-width:3.31883"
       r="15.930386" />
    <path
       d="m 911.47152,202.9604 c -1.3275,-2.65498 -4.3144,-4.64628 -7.3014,-4.64628 a 7.9651927,7.9651927 0 0 0 -7.3013,11.28399 c 10.2883,21.57237 32.1926,36.83908 58.0795,36.83908 25.88695,0 47.79128,-14.9348 58.07948,-36.83908 2.3232,-5.31009 -1.3275,-11.28399 -7.3014,-11.28399 h -0.3324 c -2.9868,0 -5.64203,1.6594 -6.96943,4.64628 -7.6333,16.26229 -24.2275,27.5464 -43.47675,27.5464 -19.2493,0 -35.8434,-11.28411 -43.4768,-27.5464 z"
       id="path10"
       style="stroke-width:3.31883" />
    <path
       d="m 61.137658,119.10083 c -4.72876,0 -7.092997,3.15241 -5.516641,7.8812 l 40.194378,123.7361 c 0.789356,3.15271 3.940593,6.30512 7.093305,6.30512 h 33.10137 c 3.94059,0 6.30482,-2.36512 7.09299,-6.30512 l 22.06748,-82.75328 22.06778,82.75328 c 0.78937,3.15271 3.94059,6.30512 7.88118,6.30512 h 31.525 c 3.94091,0 6.30512,-2.36512 7.88147,-6.30512 l 40.19438,-122.94795 c 1.57577,-4.72876 -0.78937,-7.88118 -5.51695,-7.88118 h -24.43169 c -3.9409,0 -6.30515,3.15242 -7.09331,5.51695 l -25.2202,87.48204 -23.64384,-88.27021 c -0.78936,-3.94059 -3.94057,-5.51695 -7.093,-5.51695 h -29.94895 c -3.94059,0 -6.30481,1.57577 -7.09299,5.51695 L 120.2474,212.88799 95.815395,124.61778 c -0.789376,-3.15242 -3.152424,-5.51695 -7.092997,-5.51695 z m 287.666912,-3.94059 c -36.25408,0 -69.35546,28.37261 -69.35546,72.50786 0,44.13498 33.10138,73.29574 69.35546,73.29574 19.70294,0 35.46559,-8.66935 42.55891,-20.49141 v 10.2457 c 0,3.15271 2.36511,5.51695 5.51663,5.51695 h 25.22019 c 3.15241,0 5.51695,-2.36514 5.51695,-5.51695 V 124.61778 c 0,-3.15242 -2.36513,-6.30513 -5.51695,-6.30513 h -25.22019 c -3.1524,0 -5.51663,3.15271 -5.51663,6.30513 v 11.03388 c -7.09332,-11.82207 -22.85597,-20.49142 -42.55891,-20.49142 z m 5.51664,33.88955 c 21.2796,0 37.04227,17.33871 37.04227,38.61831 0,21.2793 -15.76267,38.61803 -37.04227,38.61803 -21.2793,0 -37.04196,-17.33873 -37.04196,-38.61803 -0.78936,-21.2796 15.76266,-38.61831 37.04196,-38.61831 z m 102.45682,-29.94896 c -3.1527,0 -5.51695,2.36513 -5.51695,5.51695 v 19.70325 c 0,3.15241 2.36514,5.51694 6.30513,6.30481 h 61.47396 l -67.77909,75.66029 c -2.36512,2.36511 -3.1524,3.94087 -3.1524,7.09327 v 17.33873 c 0,3.15271 2.36511,5.51695 6.30482,6.30512 h 111.12617 c 3.15243,0 5.51694,-2.36512 5.51694,-5.51695 v -19.70322 c 0,-3.15244 -2.36514,-6.30484 -5.51694,-6.30484 h -66.99091 l 66.99091,-75.66027 c 2.36514,-1.57575 3.15243,-3.94089 3.15243,-7.09329 v -18.1269 c 0,-3.15242 -3.15243,-5.51695 -6.30514,-6.30513 H 456.77803 Z m 193.09127,-3.94059 a 71.719629,71.719629 0 0 0 -73.29605,73.29575 c 0,40.98285 29.94896,72.50785 73.29605,72.50785 30.73684,0 48.86402,-11.82178 59.89761,-26.79625 1.57576,-2.36514 2.36514,-6.3051 -0.78938,-8.66935 l -18.12688,-12.61025 c -0.78936,-0.78935 -2.36512,-0.78935 -3.15241,-0.78935 -1.57576,0 -3.15241,0.78935 -4.72877,2.36511 a 40.194518,40.194518 0 0 1 -32.31319,14.18631 c -18.91506,0 -33.88954,-12.60996 -36.25407,-32.3132 h 98.51623 c 5.51664,0 6.30482,-3.15271 6.30482,-6.30512 v -7.09299 c 1.57575,-35.46591 -26.00808,-67.77911 -69.35514,-67.77911 z m 0.78936,29.16079 c 15.76237,0 30.73684,10.24571 33.88955,29.16077 h -67.77908 c 3.15241,-17.33901 17.3387,-29.16077 33.88953,-29.16077 z"
       class="st0"
       id="path2-7"
       style="stroke-width:7.88127" />
    <path
       fill="#1a73e8"
       d="m 1483.6182,37.005012 c -10.6861,-3.399948 -22.3432,-5.342844 -34.2428,-5.342844 -34.2427,0 -65.0855,15.542873 -85.7288,40.071503 l 52.9428,44.443029 z"
       id="path2-9"
       style="stroke-width:2.42857" />
    <path
       fill="#ea4335"
       d="m 1363.6466,71.733671 c -16.2714,19.42866 -26.2287,44.685899 -26.2287,71.885949 0,21.12868 4.1287,38.1287 11.1716,53.4287 l 67.9999,-80.87162 z"
       id="path4-9"
       style="stroke-width:2.42857" />
    <path
       fill="#4285f4"
       d="m 1449.6178,100.87661 c 23.8008,0 42.9865,19.18578 42.9865,42.98588 0,10.4429 -3.8863,20.15719 -10.2004,27.6858 0,0 33.7571,-40.31437 66.7864,-79.414559 -13.6003,-26.22865 -37.158,-46.142964 -65.5721,-55.128719 l -67.0288,79.171688 c 8.0141,-9.22863 19.6713,-15.30009 33.0284,-15.30009"
       id="path6"
       style="stroke-width:2.42857" />
    <path
       fill="#fbbc04"
       d="m 1449.6178,186.6055 c -23.7999,0 -42.9856,-19.18578 -42.9856,-42.98588 0,-10.4429 3.643,-20.15718 9.9572,-27.44292 l -67.9999,80.87162 c 11.6572,25.74299 31.0852,46.6287 50.9997,72.61457 l 82.8147,-98.35747 c -8.0142,9.4715 -19.6714,15.30008 -32.7861,15.30008"
       id="path8"
       style="stroke-width:2.42857" />
    <path
       fill="#34a853"
       d="m 1480.9471,296.86294 c 37.4003,-58.52876 80.8715,-85.00028 80.8715,-153.00045 0,-18.70003 -4.6143,-36.1858 -12.6283,-51.728759 L 1399.5892,269.66289 c 6.3141,8.25714 12.8716,17.72855 19.1858,27.44292 22.8287,35.2144 16.5145,56.10012 31.086,56.10012 14.5715,0 8.2574,-21.12858 31.0861,-56.34299"
       id="path10-3"
       style="stroke-width:2.42857" />
    <path
       d="m 1994.792,209.01657 31.2878,-12.99877 c -1.7382,-4.38331 -6.8773,-7.40628 -12.9988,-7.40628 -7.8219,-0.0379 -18.6669,6.87726 -18.289,20.40505 m 36.7291,12.58312 11.9407,7.9353 c -3.8542,5.70586 -13.1121,15.53051 -29.1716,15.53051 -19.8761,0 -34.2351,-15.37936 -34.2351,-34.99088 0,-20.82071 14.4724,-34.9909 32.5347,-34.9909 16.5886,0.56682 26.9044,11.26057 31.5523,26.22427 l -46.856,19.34702 c 3.5897,7.02841 9.1444,10.61819 16.9662,10.61819 7.7843,0 13.2257,-3.85429 17.1933,-9.67351 m -75.9522,21.34974 h 15.3794 V 140.16841 h -15.3794 z m -25.0907,-32.76146 c 0,-12.31859 -8.2375,-21.34973 -18.7046,-21.34973 -10.5804,0 -19.4982,9.03114 -19.4982,21.34973 0,12.20525 8.88,21.08523 19.4982,21.08523 10.5048,0 18.7046,-8.87998 18.7046,-21.08523 z m 13.5279,-32.98816 v 62.72664 c 0,25.84641 -15.2282,36.46459 -33.2527,36.46459 -16.9664,0 -27.169,-11.41171 -31.0232,-20.66957 l 13.3766,-5.5547 c 2.3806,5.70586 8.2375,12.46976 17.6466,12.46976 17.1931,-1.9536 18.7046,-13.07435 18.7046,-25.58189 h -0.5667 c -3.4388,4.23215 -10.0892,7.97308 -18.4402,7.97308 -17.4954,0 -33.555,-15.22821 -33.555,-34.87754 0,-19.76266 16.0217,-35.14203 33.555,-35.14203 8.351,0 15.0014,3.70314 18.4402,7.82194 h 0.529 v -5.70586 c 0,-0.0378 14.5858,-0.0378 14.5858,-0.0378 z m -167.7749,32.87481 c 0,-12.58312 -8.9934,-21.19859 -19.3848,-21.19859 -10.4292,0 -19.3849,8.61547 -19.3849,21.19859 0,12.46976 8.9934,21.19858 19.3849,21.19858 10.3914,0 19.3848,-8.76661 19.3848,-21.19858 m 15.1148,0 c 0,20.14054 -15.4927,34.99088 -34.4996,34.99088 -19.007,0 -34.4997,-14.85034 -34.4997,-34.99088 0,-20.2917 15.4927,-34.9909 34.4997,-34.9909 19.0069,0 34.4996,14.6992 34.4996,34.9909 m 62.3488,0 c 0,-12.58312 -8.9933,-21.19859 -19.3849,-21.19859 -10.4292,0 -19.3847,8.61547 -19.3847,21.19859 0,12.46976 8.9933,21.19858 19.3847,21.19858 10.3916,0 19.3849,-8.76661 19.3849,-21.19858 m 15.1148,0 c 0,20.14054 -15.4927,34.99088 -34.4997,34.99088 -19.0068,0 -34.4996,-14.85034 -34.4996,-34.99088 0,-20.2917 15.4928,-34.9909 34.4996,-34.9909 19.007,0 34.4997,14.6992 34.4997,34.9909 m -205.5619,34.99088 c -29.9275,0 -55.1693,-24.41049 -55.1693,-54.41348 0,-29.96519 25.204,-54.41346 55.1693,-54.41346 16.5885,0 28.3781,6.49938 37.258,15.00148 l -10.467,10.46704 c -6.3483,-5.97036 -14.9638,-10.61819 -26.791,-10.61819 -21.8788,0 -38.9208,17.6466 -38.9208,39.29863 0,21.87875 17.1175,39.29862 38.9208,39.29862 14.17,0 22.2565,-5.70586 27.4333,-10.8827 4.2323,-4.23215 7.0285,-10.35367 8.0865,-18.70463 h -35.5198 v -14.85035 h 49.879 c 0.529,2.64511 0.7935,5.81923 0.7935,9.25785 0,11.14721 -3.0608,24.93951 -12.8476,34.72638 -9.5224,10.0136 -21.7277,15.34159 -37.7872,15.34159"
       fill="#5f6368"
       fill-rule="evenodd"
       id="path2-1"
       style="stroke-width:0.377871" />
    <path
       d="m 2080.2439,242.17102 v -91.37157 h 11.8002 l 31.7329,55.65213 h 0.4783 l 31.7329,-55.65213 h 11.8001 v 91.37157 h -11.7963 l 0.4783,-69.52532 h -0.4783 l -28.5436,50.07098 h -6.857 l -28.5436,-50.07098 h -0.4783 c 0.8706,23.12573 0.4783,46.40336 0.4783,69.52532 z m 124.3801,1.59461 c -6.6973,0 -12.1191,-1.91354 -16.584,-5.74062 -4.4649,-3.82708 -6.6974,-8.92987 -6.6974,-15.15264 0,-6.85686 2.7108,-12.1191 7.9731,-15.94618 5.2622,-3.82708 11.8001,-5.74062 19.4543,-5.74062 6.8569,0 12.5975,1.27569 16.903,3.82708 -0.1143,-13.26329 -9.2806,-16.90294 -16.4246,-16.90294 -6.745,0.32043 -12.5975,3.14124 -14.9894,9.08932 l -10.6839,-4.6244 c 1.4352,-3.66761 4.3054,-7.17955 8.6109,-10.36501 4.3055,-3.18545 9.8867,-4.78385 16.9029,-4.78385 7.9732,0 14.6705,2.39193 19.9327,7.01632 5.2623,4.62438 7.9731,11.32178 7.9731,19.77325 v 37.79244 h -11.1623 v -8.61094 c -5.2146,6.53793 -12.2626,10.22142 -21.2084,10.36501 z m 21.049,-29.02203 c -6.8728,-5.2305 -21.2084,-5.88421 -27.9058,-0.47839 -5.2623,5.10277 -5.8204,11.94376 -0.3189,15.94617 13.2991,8.5312 28.703,-4.75211 28.2247,-15.46778 z m 57.0873,29.02203 c -4.784,0 -9.0893,-0.95678 -12.757,-3.02977 -3.6676,-2.07301 -6.5379,-4.62439 -8.4514,-7.65416 h -0.638 l 0.4785,8.61092 v 27.58688 h -11.6407 v -90.09587 h 11.1622 v 8.61094 h 0.4785 c 1.9136,-3.02977 4.6244,-5.58117 8.4515,-7.65416 3.8271,-2.07301 8.1324,-3.02978 12.7569,-3.02978 8.1326,0 14.9894,3.18923 20.8895,9.56771 5.9,6.37846 8.7665,14.35155 8.7665,23.75979 0,9.40824 -2.8702,17.38132 -8.7665,23.7598 -5.7406,6.37846 -12.7569,9.5677 -20.73,9.5677 z m -1.9136,-10.8434 c 5.4218,0 10.0461,-2.073 14.0327,-6.21901 3.9864,-4.14601 5.9,-9.5677 5.9,-16.42456 0,-6.85685 -1.9136,-12.27855 -5.9,-16.42456 -3.9866,-4.14599 -8.6109,-6.219 -14.0327,-6.219 -5.5812,0 -10.2055,2.07301 -14.0325,6.05955 -3.8271,4.14601 -5.7407,9.5677 -5.7407,16.42456 0,6.85685 1.9136,12.438 5.7407,16.42456 3.827,4.46491 8.4513,6.37846 14.0325,6.37846 z m 65.6982,10.8434 c -7.0162,0 -12.7569,-1.75408 -17.2218,-5.10278 -4.6244,-3.34869 -7.8137,-7.65417 -10.0461,-12.75694 l 10.5244,-4.30546 c 3.3488,7.81362 8.93,11.80017 16.903,11.80017 3.6676,0 6.6975,-0.79354 8.9298,-2.39194 2.3919,-1.59461 3.5082,-3.66761 3.5082,-6.37845 0,-4.14601 -2.8703,-6.85686 -8.6109,-8.29202 l -12.5975,-3.02977 c -3.9865,-0.95677 -7.8135,-3.02978 -11.3217,-5.74063 -3.5082,-2.71084 -5.4218,-6.69738 -5.4218,-11.48124 0,-5.58115 2.3919,-10.04608 7.3353,-13.39478 4.9433,-3.50816 10.6838,-5.10277 17.3813,-5.10277 5.5811,0 10.5245,1.27568 14.83,3.82708 4.3054,2.55139 7.4946,6.05954 9.2487,10.84339 l -10.2056,4.14601 c -2.2324,-5.58117 -7.0163,-8.29202 -14.3514,-8.29202 -3.5082,0 -6.3785,0.79354 -8.7667,2.23247 -2.3881,1.43894 -3.5082,3.3487 -3.5082,5.90009 0,3.50816 2.711,6.05953 8.292,7.33524 l 12.4381,2.8703 c 5.9001,1.43516 10.2055,3.66763 13.0758,7.01633 2.8704,3.34868 4.146,7.01631 4.146,11.16232 0,5.58115 -2.2324,10.36501 -6.8568,14.03262 -4.4649,3.18924 -10.365,5.10278 -17.7002,5.10278 z"
       fill="#63666a"
       id="path4-6"
       style="stroke-width:0.377871" />
    <text
       xml:space="preserve"
       style="font-style:normal;font-weight:normal;font-size:287.203px;line-height:1.25;font-family:sans-serif;fill:#000000;fill-opacity:1;stroke:none;stroke-width:0.430804"
       x="1107.16"
       y="294.34906"
       id="text99"><tspan
         sodipodi:role="line"
         id="tspan97"
         x="1107.16"
         y="294.34906"
         style="font-style:normal;font-variant:normal;font-weight:normal;font-stretch:normal;font-size:287.203px;font-family:'Britannic Bold';-inkscape-font-specification:'Britannic Bold, ';stroke-width:0.430804">&amp;</tspan></text>
  </g>
</svg>
