<?xml version="1.0" encoding="UTF-8" standalone="no"?>
<svg
   xmlns:dc="http://purl.org/dc/elements/1.1/"
   xmlns:cc="http://creativecommons.org/ns#"
   xmlns:rdf="http://www.w3.org/1999/02/22-rdf-syntax-ns#"
   xmlns:svg="http://www.w3.org/2000/svg"
   xmlns="http://www.w3.org/2000/svg"
   xmlns:sodipodi="http://sodipodi.sourceforge.net/DTD/sodipodi-0.dtd"
   xmlns:inkscape="http://www.inkscape.org/namespaces/inkscape"
   inkscape:version="1.0 (4035a4fb49, 2020-05-01)"
   sodipodi:docname="openvpn.svg"
   id="svg17"
   viewBox="0 0 2530.016 421.7145"
   style="clip-rule:evenodd;fill-rule:evenodd;image-rendering:optimizeQuality;shape-rendering:geometricPrecision;text-rendering:geometricPrecision"
   version="1.1"
   height="400"
   width="2400"
   xml:space="preserve"><metadata
   id="metadata21"><rdf:RDF><cc:Work
       rdf:about=""><dc:format>image/svg+xml</dc:format><dc:type
         rdf:resource="http://purl.org/dc/dcmitype/StillImage" /><dc:title></dc:title></cc:Work></rdf:RDF></metadata><sodipodi:namedview
   inkscape:current-layer="svg17"
   inkscape:window-maximized="1"
   inkscape:window-y="-8"
   inkscape:window-x="-8"
   inkscape:cy="-318.93937"
   inkscape:cx="-743.71433"
   inkscape:zoom="0.1876411"
   showgrid="false"
   id="namedview19"
   inkscape:window-height="705"
   inkscape:window-width="1366"
   inkscape:pageshadow="2"
   inkscape:pageopacity="0"
   guidetolerance="10"
   gridtolerance="10"
   objecttolerance="10"
   borderopacity="1"
   bordercolor="#666666"
   pagecolor="#ffffff" />
 <defs
   id="defs4">
  <style
   id="style2"
   type="text/css">
   <![CDATA[
    .fil0 {fill:#1A3867}
    .fil1 {fill:#ED7F22}
   ]]>
  </style>
 </defs>
 <g
   transform="translate(267.78851,31.628591)"
   id="Laag_x0020_1">
  <path
   d="m 1965,7 v 56 c 0,4 1,3 7,3 5,0 3,-3 3,-7 V 25 l 20,30 c 2,-2 7,-11 10,-15 2,-3 8,-13 10,-15 v 41 c 7,1 10,1 10,-3 V 7 c 0,-4 -2,-4 -10,-3 -3,5 -19,29 -20,31 L 1975,4 c -7,0 -10,-1 -10,3 z"
   class="fil0"
   id="_10_M" />
  <path
   d="m 1910,7 c 0,10 -1,10 5,9 3,0 6,0 9,0 1,9 0,35 0,46 0,4 1,3 7,3 6,0 4,-4 4,-9 0,-9 -1,-35 0,-40 h 14 c 1,-10 1,-13 -4,-13 h -33 c -3,0 -3,0 -3,3 z"
   class="fil0"
   id="_9_T" />
  <path
   d="m 1636,9 v 305 c 0,4 2,5 5,5 h 44 c 3,0 4,-1 5,-2 V 108 l 134,211 c 9,1 37,0 48,0 4,0 6,-1 6,-5 V 7 c -2,-1 -3,-3 -7,-3 h -42 c -8,0 -6,10 -6,21 V 216 L 1689,5 c -11,-1 -32,0 -45,0 -5,0 -10,0 -10,5 z"
   class="fil0"
   id="_8_N" />
  <path
   d="m 1464,60 c 6,-1 34,0 44,0 7,0 6,0 11,3 23,14 29,55 0,77 -4,3 -6,3 -11,3 -10,0 -37,1 -44,0 z M 1408,9 v 305 c 0,4 2,5 5,5 h 45 c 6,0 5,-5 5,-10 0,-15 -1,-107 0,-113 5,-1 48,0 57,0 12,0 31,-10 40,-17 16,-14 28,-29 35,-50 6,-20 6,-44 -2,-63 -7,-18 -14,-28 -30,-42 -6,-5 -21,-14 -28,-17 -13,-4 -10,-3 -24,-3 h -90 c -6,0 -13,-1 -13,5 z"
   class="fil0"
   id="_7_P" />
  <polygon
   points="1249,207 1178,4 1120,4 1230,319 1268,320 1378,4 1320,4 "
   class="fil0"
   id="_6_V" />
  <path
   d="m 886,319 c 6,0 38,1 41,0 5,-3 3,-16 3,-22 V 123 c 2,2 26,45 28,49 l 28,49 c 5,8 9,16 14,25 l 28,49 c 5,8 9,17 14,25 7,1 26,1 33,0 6,-1 5,-6 5,-12 V 56 c 0,-5 1,-11 -3,-13 -3,-1 -28,-1 -33,-1 -7,0 -9,1 -9,8 1,55 0,113 0,168 -2,-3 -4,-7 -6,-11 -2,-4 -4,-7 -6,-11 L 986,130 C 973,108 962,86 949,64 945,57 941,49 936,42 h -50 c -1,8 0,231 0,263 0,8 -1,10 3,15 z"
   class="fil1"
   id="_5_N" />
  <path
   d="m 644,46 v 269 c 0,3 1,5 5,5 h 177 c 4,0 6,-3 6,-7 0,-46 3,-42 -12,-42 H 715 c -6,0 -13,2 -13,-5 0,-9 -1,-62 1,-66 4,-1 58,-1 70,-1 7,0 18,2 18,-5 v -40 c -3,-2 -4,-3 -9,-3 h -73 c -5,0 -7,1 -7,-5 V 93 c 0,-3 1,-4 5,-4 3,0 6,0 9,0 h 105 c 7,0 11,1 11,-7 V 44 c -2,-1 -3,-3 -7,-3 H 649 c -3,0 -5,1 -5,5 z"
   class="fil1"
   id="_4_E" />
  <path
   d="m 482,86 c 7,-1 22,0 30,0 13,0 16,-1 25,5 13,7 22,20 22,38 0,11 -3,16 -7,23 -3,6 -9,12 -15,15 -10,5 -12,5 -26,5 -8,0 -22,1 -30,0 V 87 Z M 423,44 v 271 c 0,6 5,5 11,5 h 48 v -1 c 0,-2 1,-2 1,-9 0,-13 -1,-90 0,-95 5,-1 57,0 68,0 7,0 7,0 12,-2 14,-7 30,-17 38,-30 2,-3 4,-6 6,-8 18,-32 15,-70 -6,-100 -5,-7 -10,-12 -17,-18 -4,-3 -7,-4 -11,-7 -2,-1 -4,-2 -6,-3 -11,-7 -25,-4 -40,-4 h -87 c -7,0 -11,-1 -16,2 z"
   class="fil1"
   id="_3_P" />
  <path
   d="m 0,179 c 0,18 -1,28 4,47 3,14 8,32 15,45 1,2 1,3 2,5 1,2 2,3 3,5 l 12,19 c 8,11 19,23 29,31 3,2 5,5 8,7 l 18,12 c 0,-9 7,-49 9,-62 3,-30 5,-11 -9,-34 -7,-12 -11,-19 -15,-33 -7,-29 -4,-54 10,-80 l 7,-12 c 5,-7 19,-21 26,-26 9,-6 4,-4 16,-10 22,-11 34,-11 56,-11 10,0 28,5 38,9 8,3 15,8 21,12 5,3 17,14 21,20 4,6 6,7 11,16 11,19 16,44 13,66 -2,17 -7,32 -16,47 l -10,14 c -5,5 -3,3 -1,19 l 9,65 c 7,-3 28,-20 34,-26 21,-21 37,-44 47,-73 13,-40 14,-72 4,-114 -2,-8 -8,-26 -12,-33 L 338,83 c -2,-3 -3,-4 -5,-7 C 330,71 317,57 312,52 299,40 288,32 273,23 271,22 268,20 266,19 260,16 248,11 242,9 226,3 202,-1 184,-1 c -20,0 -39,4 -57,10 -6,2 -10,4 -16,7 -5,2 -10,5 -15,8 C 82,32 82,32 69,43 62,49 58,53 52,59 42,69 24,95 19,106 l -7,15 C 6,136 0,161 0,178 Z"
   class="fil1"
   id="_2_O" />
  <path
   d="m 126,185 c 0,11 0,17 4,28 3,7 3,7 8,14 7,9 14,13 25,18 l -23,124 h 88 L 205,244 c 3,-2 9,-4 15,-8 18,-14 26,-34 22,-58 -1,-4 -2,-6 -4,-10 -7,-18 -29,-34 -51,-34 -18,0 -28,2 -43,14 -3,3 -11,12 -12,16 -3,6 -7,13 -7,22 z"
   class="fil0"
   id="_1_Sleutelgat" />
 </g>
</svg>
