<?xml version="1.0" encoding="UTF-8" standalone="no"?>
<svg
   xmlns:dc="http://purl.org/dc/elements/1.1/"
   xmlns:cc="http://creativecommons.org/ns#"
   xmlns:rdf="http://www.w3.org/1999/02/22-rdf-syntax-ns#"
   xmlns:svg="http://www.w3.org/2000/svg"
   xmlns="http://www.w3.org/2000/svg"
   xmlns:xlink="http://www.w3.org/1999/xlink"
   xmlns:sodipodi="http://sodipodi.sourceforge.net/DTD/sodipodi-0.dtd"
   xmlns:inkscape="http://www.inkscape.org/namespaces/inkscape"
   inkscape:version="1.0 (4035a4fb49, 2020-05-01)"
   sodipodi:docname="Samba_logo_2010.svg"
   id="svg2"
   style="font-size:158px;font-family:DesignSystemC-700;fill:url(#linearGradient8)"
   height="150"
   width="900"
   version="1.1">
  <sodipodi:namedview
     inkscape:current-layer="svg2"
     inkscape:window-maximized="1"
     inkscape:window-y="-8"
     inkscape:window-x="-8"
     inkscape:cy="68"
     inkscape:cx="450"
     inkscape:zoom="1.3131443"
     showgrid="false"
     id="namedview13"
     inkscape:window-height="705"
     inkscape:window-width="1366"
     inkscape:pageshadow="2"
     inkscape:pageopacity="0"
     guidetolerance="10"
     gridtolerance="10"
     objecttolerance="10"
     borderopacity="1"
     bordercolor="#666666"
     pagecolor="#ffffff" />
  <metadata
     id="metadata4">
    <rdf:RDF>
      <cc:Work
         rdf:about="">
        <dc:format>image/svg+xml</dc:format>
        <dc:type
           rdf:resource="http://purl.org/dc/dcmitype/StillImage" />
        <dc:title></dc:title>
      </cc:Work>
    </rdf:RDF>
  </metadata>
  <defs
     id="defs6">
    <linearGradient
       id="linearGradient8"
       gradientUnits="userSpaceOnUse"
       y2="123"
       x2="331.94678"
       y1="12"
       x1="331.94678">
      <stop
         id="stop10"
         offset="0"
         style="stop-color:#99a29b;stop-opacity:1" />
      <stop
         id="stop12"
         offset="1"
         style="stop-color:#738777;stop-opacity:1" />
    </linearGradient>
    <linearGradient
       gradientTransform="translate(60,8)"
       y2="123"
       x2="331.94678"
       y1="12"
       x1="331.94678"
       gradientUnits="userSpaceOnUse"
       id="linearGradient15"
       xlink:href="#linearGradient8"
       inkscape:collect="always" />
    <linearGradient
       gradientTransform="translate(60,8)"
       y2="123"
       x2="331.94678"
       y1="12"
       x1="331.94678"
       gradientUnits="userSpaceOnUse"
       id="linearGradient17"
       xlink:href="#linearGradient8"
       inkscape:collect="always" />
    <linearGradient
       gradientTransform="translate(60,8)"
       y2="123"
       x2="331.94678"
       y1="12"
       x1="331.94678"
       gradientUnits="userSpaceOnUse"
       id="linearGradient19"
       xlink:href="#linearGradient8"
       inkscape:collect="always" />
    <linearGradient
       gradientTransform="translate(60,8)"
       y2="123"
       x2="331.94678"
       y1="12"
       x1="331.94678"
       gradientUnits="userSpaceOnUse"
       id="linearGradient21"
       xlink:href="#linearGradient8"
       inkscape:collect="always" />
    <linearGradient
       gradientTransform="translate(60,8)"
       y2="123"
       x2="331.94678"
       y1="12"
       x1="331.94678"
       gradientUnits="userSpaceOnUse"
       id="linearGradient23"
       xlink:href="#linearGradient8"
       inkscape:collect="always" />
  </defs>
  <path
     style="fill:url(#linearGradient15)"
     id="path14"
     d="m 190,9.125 v 9.5625 H 89.579137 c -5.47733,0 -9.507576,1.372355 -12.102082,4.096089 -2.594523,2.723885 -3.883305,6.906307 -3.883305,12.580846 V 81.84375 c 0,1.74304 0.39056,3.04637 1.1875,3.90625 0.796936,0.836664 2.036319,1.25001 3.71875,1.25 h 89.4375 c 2.66317,0 4.52832,0.600945 5.59375,1.8125 1.154,1.21163 1.71867,3.267099 1.71875,6.15625 v 6.59375 c 0,2.88064 -0.56819,4.91702 -1.71875,6.125 -1.06224,1.20801 -2.93846,1.8125 -5.59375,1.8125 H 76.53125 v -9.75 l -16.09375,21 16.09375,21 V 132 H 178.0625 c 6.92965,0 12.06113,-1.71014 15.34375,-5.15625 3.28241,-3.44608 4.90614,-8.75812 4.90625,-15.9375 V 83.5625 C 198.3124,76.954254 196.80256,72.047023 193.78125,68.875 190.75974,65.614964 186.06593,64 179.6875,64 h -75.71875 c -2.56701,0 -4.443063,-0.604382 -5.59375,-1.8125 -1.150741,-1.208 -1.71875,-3.244217 -1.71875,-6.125 V 49.5 c 0,-2.880685 0.568009,-4.948112 1.71875,-6.15625 1.150687,-1.207981 3.02674,-1.81242 5.59375,-1.8125 H 190 v 9.5625 L 206.09375,30.125 Z" />
  <path
     style="fill:url(#linearGradient17)"
     id="path16"
     d="M 351.1342,131.99808 H 328.42344 V 87 h -79.04141 v 44.99808 H 226.79308 V 35.355264 c 0,-11.110559 5.18586,-16.665949 15.55761,-16.665949 h 90.39748 c 12.25725,0 18.38603,6.565379 18.38603,19.695876 V 131.99808 M 321.46527,41.545386 H 256.462 c -2.56704,0 -4.38878,0.629409 -5.46524,1.887996 -1.07651,1.168836 -1.35763,3.203199 -1.61473,6.068563 V 64 h 79.04141 V 49.504704 c 0,-2.877873 -0.53852,-4.901426 -1.61529,-6.070667 -0.9941,-1.259024 -2.77506,-1.888573 -5.34288,-1.888651" />
  <path
     style="fill:url(#linearGradient19)"
     id="path18"
     d="m 462.74911,18.689315 h 54.80265 c 12.3426,0 18.51397,7.207121 18.51412,21.621078 V 131.99808 H 513.00092 V 46.818574 c 0,-1.906641 -0.32949,-3.247281 -0.98825,-4.021924 -0.6589,-0.834126 -1.77385,-1.251213 -3.34483,-1.251264 h -34.1443 c -2.37144,0 -4.05433,0.629627 -5.04869,1.888651 -0.99451,1.169241 -1.49173,3.192794 -1.49165,6.070667 V 131.99808 H 445.80773 V 49.519694 c 0,-2.883293 -0.49821,-4.910657 -1.49445,-6.082099 -0.99638,-1.261397 -2.72075,-1.892131 -5.17315,-1.892209 h -34.14429 c -1.57637,0 -2.69508,0.418544 -3.35611,1.255479 -0.66107,0.777251 -0.99159,2.122406 -0.99157,4.03547 V 131.99808 H 377.59779 V 35.446312 c 0,-11.171258 4.78299,-16.756997 14.349,-16.756997 h 58.96778 c 1.8595,0 3.25414,0.406052 4.18392,1.218057 0.92974,0.780837 1.51416,2.09259 1.75327,3.935262 0.21249,-1.842672 0.78363,-3.154425 1.71342,-3.935262 0.92974,-0.812005 2.32438,-1.218024 4.18393,-1.218057" />
  <path
     style="fill:url(#linearGradient21)"
     id="path20"
     d="m 683.29087,81.786572 v 27.687578 c 0,7.82083 -1.68094,13.55608 -5.04244,17.20578 -3.2657,3.54544 -8.54826,5.31815 -15.84766,5.31815 H 559.09657 V 18.689315 h 105.95084 c 6.37462,0 10.98791,1.59375 13.83987,4.78097 2.93561,3.096334 4.40348,8.05943 4.40359,14.889303 v 30.541231 c 0,2.01943 -0.38385,3.541999 -1.15144,4.567711 -0.76766,1.025749 -2.02243,1.650804 -3.7643,1.875165 1.74187,0.224396 2.99664,0.84945 3.7643,1.875166 0.76759,1.025746 1.1514,2.548315 1.15144,4.567711 M 659.32964,62.175299 c 1.12035,-1.216408 1.68058,-3.275044 1.68068,-6.175916 l 0.01,-6.464863 c 0,-2.896571 -0.55952,-4.952251 -1.67827,-6.167052 -1.11893,-1.214641 -2.92629,-1.822001 -5.42206,-1.822082 h -72.3081 V 64 h 72.15893 c 2.67166,0 4.52471,-0.608176 5.55906,-1.824701 z M 581.61165,87 v 22.49556 h 72.3081 c 2.49789,0 4.30678,-0.60786 5.42667,-1.82363 1.11969,-1.21573 1.67958,-3.27315 1.67968,-6.17228 v -6.481766 c 0,-2.907035 -0.56153,-4.970113 -1.6843,-6.189244 -1.03658,-1.219054 -2.89364,-1.8286 -5.57114,-1.82864 h -72.15901" />
  <path
     style="fill:url(#linearGradient23)"
     id="path22"
     d="M 832.96464,131.99808 H 810.15816 V 87 h -79.28832 v 44.99808 H 708.2626 V 35.365725 c 0,-11.117534 5.20418,-16.67641 15.61256,-16.67641 h 90.78605 c 12.20219,0 18.30343,6.516963 18.30343,19.55063 V 131.99808 M 803.2096,41.545386 h -65.19195 c -2.59163,0 -4.43084,0.633599 -5.5176,1.900568 -1.08684,1.176619 -1.37838,3.22391 -1.63021,6.108973 V 64 h 79.28832 V 49.470695 c 0,-2.865576 -0.53778,-4.880484 -1.61307,-6.044728 -0.99273,-1.253645 -2.77124,-1.880503 -5.33549,-1.880581" />
</svg>
