<?xml version="1.0" encoding="UTF-8" standalone="no"?>
<!-- Created with Inkscape (http://www.inkscape.org/) -->

<svg
   xmlns:dc="http://purl.org/dc/elements/1.1/"
   xmlns:cc="http://creativecommons.org/ns#"
   xmlns:rdf="http://www.w3.org/1999/02/22-rdf-syntax-ns#"
   xmlns:svg="http://www.w3.org/2000/svg"
   xmlns="http://www.w3.org/2000/svg"
   xmlns:sodipodi="http://sodipodi.sourceforge.net/DTD/sodipodi-0.dtd"
   xmlns:inkscape="http://www.inkscape.org/namespaces/inkscape"
   width="900px"
   height="600px"
   viewBox="0 0 900 600"
   version="1.1"
   id="SVGRoot"
   inkscape:version="0.92.4 (5da689c313, 2019-01-14)"
   sodipodi:docname="CaddyCollage.svg">
  <defs
     id="defs3761">
    <style
       id="style993"
       type="text/css">
   <![CDATA[
    .fil0 {fill:#1A3867}
    .fil1 {fill:#ED7F22}
   ]]>
  </style>
  </defs>
  <sodipodi:namedview
     id="base"
     pagecolor="#ffffff"
     bordercolor="#666666"
     borderopacity="1.0"
     inkscape:pageopacity="0.0"
     inkscape:pageshadow="2"
     inkscape:zoom="0.35"
     inkscape:cx="-302.85714"
     inkscape:cy="300"
     inkscape:document-units="px"
     inkscape:current-layer="layer1"
     showgrid="false"
     inkscape:window-width="1366"
     inkscape:window-height="705"
     inkscape:window-x="-8"
     inkscape:window-y="-8"
     inkscape:window-maximized="1" />
  <metadata
     id="metadata3764">
    <rdf:RDF>
      <cc:Work
         rdf:about="">
        <dc:format>image/svg+xml</dc:format>
        <dc:type
           rdf:resource="http://purl.org/dc/dcmitype/StillImage" />
        <dc:title />
      </cc:Work>
    </rdf:RDF>
  </metadata>
  <g
     inkscape:label="Capa 1"
     inkscape:groupmode="layer"
     id="layer1">
    <g
       id="g885"
       stroke-miterlimit="16"
       transform="matrix(0.18564028,0,0,-0.18564028,248.907,374.14301)"
       style="clip-rule:evenodd;fill-rule:evenodd;stroke-linecap:butt;stroke-linejoin:bevel;stroke-miterlimit:16">
      <g
         id="g883">
        <g
           id="g881">
          <path
             id="path875"
             d="M 728.375,72.2266 H 582.4219 L 537.8438,184.0234 H 294.5703 L 254.0313,72.2266 H 110.7266 L 329.8125,636.4219 H 486.8828 Z M 410.1797,501.75 330.5078,282.6719 h 167.5 z"
             inkscape:connector-curvature="0"
             style="fill:#118cab;fill-rule:nonzero" />
          <path
             id="path877"
             d="m 1002.9219,636.4219 c 111.5703,0 177.6953,-77.4141 177.6953,-161.8203 0,-62.0078 -31.0391,-108.6094 -93.2813,-138.25 55.7032,-29.0235 72.6641,-98.4922 149.1407,-264.125 H 1087.3359 C 1028.9844,193.2813 1007.6719,301.5 934.1484,301.5 H 895.1719 V 72.2266 H 759.6484 V 636.4219 Z M 895.1719,405.125 h 71.9687 c 37.3438,0 74.0625,16.3359 74.0625,64.4922 0,42.0937 -26.2968,63.6406 -77.414,63.6406 h -68.6172 z"
             inkscape:connector-curvature="0"
             style="fill:#118cab;fill-rule:nonzero" />
          <path
             id="path879"
             d="m 1741,636.4219 h 118.1016 V 72.2266 h -135.5235 v 352.5781 l -146.5,-176.9922 h -21 L 1409.4219,424.8047 V 72.2266 h -135.6016 v 564.1953 h 117.9453 L 1566.5,427.2969 Z"
             inkscape:connector-curvature="0"
             style="fill:#118cab;fill-rule:nonzero" />
        </g>
      </g>
    </g>
    <g
       id="g965"
       transform="translate(15.101132,173.17857)">
      <path
         id="path903"
         d="m 303,290 c -3.2,-0.1 -5.8,2.4 -5.9,5.5 0,0.1 0,0.3 0,0.4 v 28.4 c -13.7,-11 -33.8,-8.8 -44.8,4.9 -4.5,5.7 -7,12.7 -7,20 -0.3,17.6 13.7,32.1 31.3,32.4 17.6,0.3 32.1,-13.7 32.4,-31.3 0,-0.4 0,-0.7 0,-1.1 v -53.3 c 0,-1.6 -0.6,-3.1 -1.7,-4.2 -1.2,-1.1 -2.7,-1.7 -4.3,-1.7 m -7.5,66.9 c -2,4.8 -5.8,8.6 -10.6,10.7 -5,2.1 -10.6,2.1 -15.6,0 -4.8,-2 -8.5,-5.9 -10.5,-10.6 -2.1,-4.9 -2.1,-10.5 0,-15.5 2,-4.8 5.8,-8.6 10.5,-10.6 5,-2.1 10.6,-2.1 15.6,0 4.8,2.1 8.6,5.9 10.6,10.7 2.1,4.8 2.1,10.4 0,15.3"
         class="st0"
         inkscape:connector-curvature="0"
         style="fill:#0091e2" />
      <path
         id="path905"
         d="m 369.5,326.7 c -12.4,-12.4 -32.6,-12.4 -45,0 -6,6 -9.3,14.1 -9.3,22.5 -0.3,17.6 13.7,32.1 31.3,32.4 17.6,0.3 32.1,-13.7 32.4,-31.3 0,-0.4 0,-0.7 0,-1.1 0,-4.2 -0.8,-8.3 -2.4,-12.2 -1.6,-3.9 -4,-7.4 -7,-10.3 m -4.1,30.1 c -1,2.4 -2.5,4.5 -4.3,6.3 -1.8,1.8 -4,3.3 -6.3,4.3 -5,2.1 -10.6,2.1 -15.6,0 -4.8,-2 -8.6,-5.9 -10.6,-10.6 -2.1,-4.9 -2.1,-10.5 0,-15.5 2,-4.8 5.8,-8.5 10.6,-10.6 5,-2.1 10.6,-2.1 15.6,0 2.4,1 4.5,2.5 6.3,4.3 1.8,1.8 3.3,4 4.3,6.3 2.1,5.1 2.1,10.7 0,15.5"
         class="st0"
         inkscape:connector-curvature="0"
         style="fill:#0091e2" />
      <path
         id="path907"
         d="m 501.2,323.2 c 0,-0.8 -0.2,-1.6 -0.5,-2.3 -0.3,-0.7 -0.8,-1.3 -1.3,-1.9 -0.5,-0.5 -1.2,-1 -1.9,-1.3 -0.7,-0.3 -1.5,-0.5 -2.3,-0.5 -1.1,0 -2.2,0.3 -3.2,0.9 l -34,22.1 V 296 c 0,-1.6 -0.6,-3.1 -1.7,-4.2 -1.1,-1.1 -2.6,-1.8 -4.2,-1.8 -3.3,0 -5.9,2.6 -6,5.9 0,0 0,0 0,0.1 v 79 c 0,1.6 0.6,3.1 1.7,4.2 1.1,1.2 2.6,1.8 4.2,1.8 1.6,0 3.1,-0.6 4.2,-1.8 1.1,-1.1 1.8,-2.6 1.7,-4.2 v -20.5 l 6.9,-4.5 26.3,29.5 c 1.1,1 2.5,1.6 4,1.5 0.8,0 1.6,-0.1 2.3,-0.5 0.7,-0.3 1.3,-0.7 1.9,-1.3 0.5,-0.6 1,-1.2 1.3,-1.9 0.3,-0.7 0.5,-1.5 0.5,-2.3 0,-1.5 -0.6,-3 -1.6,-4.1 l -24.4,-27.5 23.8,-15.5 c 1.6,-1 2.4,-2.8 2.3,-4.7"
         class="st0"
         inkscape:connector-curvature="0"
         style="fill:#0091e2" />
      <path
         id="path909"
         d="m 402.5,335 c 1.8,-1.8 4,-3.3 6.4,-4.3 2.5,-1 5.1,-1.6 7.8,-1.6 2.4,0 4.7,0.4 6.9,1.2 2.2,0.9 4.3,2.1 6.1,3.7 1.1,0.9 2.5,1.3 3.9,1.3 1.6,0.1 3.2,-0.5 4.3,-1.7 1.1,-1.1 1.7,-2.7 1.7,-4.3 0,-1.7 -0.7,-3.4 -2.1,-4.5 -5.7,-5.1 -13.1,-7.9 -20.8,-7.7 -17.6,0 -31.9,14.3 -31.9,31.9 0,17.6 14.2,31.8 31.7,31.9 7.7,0 15.1,-2.7 20.9,-7.7 1.2,-1.1 1.9,-2.7 1.9,-4.4 0.1,-3.2 -2.4,-5.8 -5.5,-5.9 -0.1,0 -0.3,0 -0.4,0 -1.4,0 -2.7,0.4 -3.8,1.2 -1.8,1.6 -3.8,2.8 -6,3.7 -2.2,0.8 -4.6,1.2 -6.9,1.2 -2.7,0 -5.3,-0.5 -7.8,-1.6 -2.4,-1 -4.5,-2.5 -6.4,-4.3 -7.8,-7.8 -7.8,-20.4 -0.1,-28.2 0.1,0.2 0.1,0.2 0.1,0.1"
         class="st0"
         inkscape:connector-curvature="0"
         style="fill:#0091e2" />
      <path
         id="path911"
         d="m 619.3,321.3 c -1.2,-1.1 -2.5,-1.9 -4,-2.4 -1.7,-0.6 -3.5,-1 -5.3,-1.2 -1.8,-0.2 -3.6,-0.3 -5.4,-0.3 -3.6,0 -7.3,0.6 -10.7,1.9 -3.4,1.2 -6.5,3 -9.3,5.2 v -1.2 c -0.1,-3.3 -2.9,-5.8 -6.2,-5.7 -3.1,0.1 -5.6,2.6 -5.7,5.7 v 51.9 c 0.1,3.3 2.9,5.8 6.2,5.7 3.1,-0.1 5.6,-2.6 5.7,-5.7 v -25.9 c 0,-2.7 0.5,-5.3 1.6,-7.8 1,-2.4 2.4,-4.5 4.3,-6.3 1.8,-1.8 4,-3.3 6.3,-4.3 2.5,-1 5.1,-1.6 7.8,-1.6 2.7,0 5.3,0.5 7.8,1.4 0.8,0.4 1.6,0.6 2.5,0.6 0.8,0 1.6,-0.1 2.3,-0.5 0.7,-0.3 1.3,-0.7 1.9,-1.3 0.5,-0.5 1,-1.2 1.3,-1.9 0.3,-0.7 0.5,-1.5 0.5,-2.3 0.1,-1.5 -0.5,-2.9 -1.6,-4"
         class="st0"
         inkscape:connector-curvature="0"
         style="fill:#0091e2" />
      <path
         id="path913"
         d="m 564.1,337 c -5.1,-11.8 -16.7,-19.5 -29.5,-19.6 -17.6,0 -31.8,14.2 -31.9,31.8 0,0 0,0 0,0 0,17.6 14.3,31.9 31.9,31.9 7.6,0 15,-2.7 20.8,-7.7 0.1,-0.1 0.2,-0.2 0.2,-0.2 0.5,-0.4 1,-0.9 1.3,-1.5 1.9,-2.8 1.2,-6.5 -1.5,-8.4 -2.3,-1.5 -5.3,-1.2 -7.3,0.7 -0.2,0.2 -0.8,0.7 -0.8,0.8 l -0.1,0.1 c -1.7,1.4 -3.6,2.6 -5.7,3.3 -2.2,0.8 -4.5,1.2 -6.9,1.1 -2.2,0 -4.3,-0.3 -6.4,-1 -2,-0.7 -3.9,-1.6 -5.6,-2.9 -1.7,-1.2 -3.2,-2.7 -4.4,-4.4 -1.3,-1.7 -2.2,-3.7 -2.8,-5.7 h 45 c 1.6,0 3.1,-0.6 4.2,-1.7 1.2,-1.1 1.8,-2.6 1.7,-4.2 0.1,-4.3 -0.7,-8.5 -2.2,-12.4 m -48.7,6.4 c 0.6,-2.1 1.5,-4 2.8,-5.7 1.2,-1.7 2.7,-3.2 4.4,-4.4 1.7,-1.2 3.6,-2.2 5.6,-2.9 2,-0.7 4.2,-1 6.3,-1 2.1,0 4.3,0.3 6.3,1 4,1.3 7.5,3.9 10,7.3 1.3,1.7 2.2,3.7 2.9,5.7 z"
         class="st0"
         inkscape:connector-curvature="0"
         style="fill:#0091e2" />
      <path
         id="path915"
         d="m 599,372.4 c -2.3,0 -4.1,1.9 -4.1,4.2 0,2.3 1.9,4.1 4.2,4.1 2.3,0 4.1,-1.9 4.1,-4.1 0,-2.4 -1.9,-4.2 -4.2,-4.2 0,0 0,0 0,0 m 0,7.4 c -1.8,0.1 -3.3,-1.3 -3.4,-3.1 -0.1,-1.8 1.3,-3.3 3.1,-3.4 1.8,-0.1 3.3,1.3 3.4,3.1 0,0.1 0,0.1 0,0.2 0.1,1.7 -1.3,3.2 -3,3.2 0,0 0,0 -0.1,0"
         class="st0"
         inkscape:connector-curvature="0"
         style="fill:#0091e2" />
      <path
         id="path917"
         d="m 600,376.6 v 0 c 0.5,-0.1 0.8,-0.5 0.8,-1 0,-0.4 -0.1,-0.7 -0.4,-0.9 -0.4,-0.2 -0.9,-0.3 -1.4,-0.3 -0.5,0 -1.1,0 -1.6,0.1 v 4.1 h 0.9 V 377 h 0.4 c 0.5,0 0.8,0.2 0.9,0.6 0.1,0.3 0.2,0.7 0.3,1 h 1 c -0.2,-0.3 -0.3,-0.7 -0.3,-1 0.1,-0.4 -0.2,-0.8 -0.6,-1 m -1.2,-0.3 h -0.5 v -1.2 c 0.2,0 0.4,0 0.5,0 0.6,0 0.9,0.3 0.9,0.6 0.1,0.4 -0.4,0.7 -0.9,0.6"
         class="st0"
         inkscape:connector-curvature="0"
         style="fill:#0091e2" />
      <path
         id="path919"
         d="m 234.4,303.4 c -0.6,-0.5 -6,-4.6 -17.6,-4.6 -3,0 -6.1,0.3 -9.1,0.8 -2.2,-15.3 -14.9,-22.7 -15.4,-23.1 l -3.1,-1.8 -2,2.9 c -2.5,3.9 -4.4,8.3 -5.5,12.8 -2.1,8.7 -0.8,16.9 3.6,23.9 -5.3,3 -13.9,3.7 -15.7,3.8 h -142 c -3.7,0 -6.7,3 -6.7,6.7 -0.2,12.4 1.9,24.8 6.2,36.5 4.9,12.8 12.2,22.3 21.6,28.1 10.6,6.5 27.9,10.2 47.4,10.2 8.8,0 17.6,-0.8 26.3,-2.4 12.1,-2.2 23.7,-6.4 34.4,-12.5 8.8,-5.1 16.7,-11.6 23.4,-19.2 11.3,-12.7 18,-26.9 22.9,-39.5 0.7,0 1.3,0 2,0 12.3,0 19.9,-4.9 24.1,-9.1 2.8,-2.6 4.9,-5.8 6.4,-9.4 l 0.9,-2.6 z"
         class="st0"
         inkscape:connector-curvature="0"
         style="fill:#0091e2" />
      <path
         id="path921"
         d="m 40.8,314 h 19 c 0.9,0 1.7,-0.7 1.7,-1.7 v 0 -17 c 0,-0.9 -0.7,-1.7 -1.7,-1.7 0,0 0,0 0,0 h -19 c -0.9,0 -1.7,0.7 -1.7,1.7 0,0 0,0 0,0 v 17 c 0.1,1 0.8,1.7 1.7,1.7 v 0"
         class="st0"
         inkscape:connector-curvature="0"
         style="fill:#0091e2" />
      <path
         id="path923"
         d="m 67,314 h 19 c 0.9,0 1.7,-0.7 1.7,-1.7 v 0 -17 c 0,-0.9 -0.7,-1.7 -1.7,-1.7 0,0 0,0 0,0 H 67 c -0.9,0 -1.7,0.7 -1.7,1.7 v 17 c 0.1,1 0.8,1.7 1.7,1.7"
         class="st0"
         inkscape:connector-curvature="0"
         style="fill:#0091e2" />
      <path
         id="path925"
         d="m 93.7,314 h 19 c 0.9,0 1.7,-0.7 1.7,-1.7 v 0 -17 c 0,-0.9 -0.7,-1.7 -1.7,-1.7 0,0 0,0 0,0 h -19 c -0.9,0 -1.7,0.7 -1.7,1.7 0,0 0,0 0,0 v 17 c 0,1 0.7,1.7 1.7,1.7 v 0"
         class="st0"
         inkscape:connector-curvature="0"
         style="fill:#0091e2" />
      <path
         id="path927"
         d="m 120,314 h 19 c 0.9,0 1.7,-0.7 1.7,-1.7 v -17 c 0,-0.9 -0.7,-1.7 -1.7,-1.7 v 0 h -19 c -0.9,0 -1.7,0.7 -1.7,1.7 0,0 0,0 0,0 v 17 c 0,1 0.8,1.7 1.7,1.7 v 0"
         class="st0"
         inkscape:connector-curvature="0"
         style="fill:#0091e2" />
      <path
         id="path929"
         d="m 67,289.7 h 19 c 0.9,0 1.7,-0.8 1.7,-1.7 v -17 c 0,-0.9 -0.7,-1.7 -1.7,-1.7 v 0 H 67 c -0.9,0 -1.7,0.7 -1.7,1.7 v 17 c 0.1,0.9 0.8,1.7 1.7,1.7"
         class="st0"
         inkscape:connector-curvature="0"
         style="fill:#0091e2" />
      <path
         id="path931"
         d="m 93.7,289.7 h 19 c 0.9,0 1.7,-0.8 1.7,-1.7 v -17 c 0,-0.9 -0.7,-1.7 -1.7,-1.7 v 0 h -19 c -0.9,0 -1.7,0.7 -1.7,1.7 v 0 17 c 0,0.9 0.7,1.7 1.7,1.7"
         class="st0"
         inkscape:connector-curvature="0"
         style="fill:#0091e2" />
      <path
         id="path933"
         d="m 120,289.7 h 19 c 0.9,0 1.7,-0.8 1.7,-1.7 v -17 c 0,-0.9 -0.8,-1.7 -1.7,-1.7 h -19 c -0.9,0 -1.7,0.7 -1.7,1.7 v 0 17 c 0,0.9 0.8,1.7 1.7,1.7"
         class="st0"
         inkscape:connector-curvature="0"
         style="fill:#0091e2" />
      <path
         id="path935"
         d="m 120,265.3 h 19 c 0.9,0 1.7,-0.7 1.7,-1.7 v -17 c 0,-0.9 -0.8,-1.7 -1.7,-1.7 h -19 c -0.9,0 -1.7,0.7 -1.7,1.7 v 0 17 c 0,0.9 0.8,1.7 1.7,1.7"
         class="st0"
         inkscape:connector-curvature="0"
         style="fill:#0091e2" />
      <path
         id="path937"
         d="m 146.5,314 h 19 c 0.9,0 1.7,-0.7 1.7,-1.7 v -17 c 0,-0.9 -0.7,-1.7 -1.7,-1.7 v 0 h -19 c -0.9,0 -1.7,0.7 -1.7,1.7 0,0 0,0 0,0 v 17 c 0.1,1 0.8,1.7 1.7,1.7"
         class="st0"
         inkscape:connector-curvature="0"
         style="fill:#0091e2" />
    </g>
    <g
       style="fill:#000000"
       id="g978"
       transform="matrix(5.5454545,0,0,5.5454545,46.818174,210.81818)">
      <path
         id="path967"
         d="M 6,4 C 4.895,4 4,4.895 4,6 v 18 c 0,1.105 0.895,2 2,2 h 18 c 1.105,0 2,-0.895 2,-2 V 6 C 26,4.895 25.105,4 24,4 Z m 5.646484,3.1113281 c 1.562,0 2.636719,0.7858282 2.636719,1.9238281 0,0.811 -0.542984,1.4506558 -1.333984,1.5976558 v 0.09375 c 0.972,0.103 1.59375,0.742391 1.59375,1.650391 -10e-4,1.274 -1.203735,2.16211 -2.927735,2.162109 -1.6459996,0 -2.7534059,-0.897296 -2.8164059,-2.279296 h 1.7089839 c 0.024,0.537 0.459672,0.86914 1.138672,0.86914 0.635,0 1.074219,-0.362625 1.074219,-0.890625 0,-0.542 -0.415609,-0.873047 -1.099609,-0.873047 h -0.863282 v -1.234375 h 0.863282 c 0.601,0 0.996094,-0.3385621 0.996094,-0.8515621 0,-0.513 -0.386719,-0.8300781 -1.011719,-0.8300781 -0.615,0 -1.028828,0.3659687 -1.048828,0.9179687 H 8.9316406 c 0.024,-1.377 1.0788434,-2.2558594 2.7148434,-2.2558594 z m 6.78711,0 c 1.577,0 2.630859,0.8448438 2.630859,2.0898438 0,0.781 -0.458984,1.4748901 -1.708984,2.5878901 l -1.16211,1.06836 v 0.09375 h 2.96875 v 1.396484 h -5.355468 v -1.195312 l 2.226562,-2.095703 c 1.035,-0.957 1.298828,-1.312516 1.298828,-1.728516 0,-0.518 -0.38189,-0.8632812 -0.96289,-0.8632812 -0.605,0 -1.023438,0.4092343 -1.023438,0.9902343 v 0.035156 h -1.642578 v -0.029297 c 0,-1.401 1.095469,-2.3496094 2.730469,-2.349609 z M 15.957031,17.289062 c 0.406,0 0.671875,0.234219 0.671875,0.574219 0,0.336 -0.265875,0.574219 -0.671875,0.574219 -0.41,0 -0.671875,-0.238219 -0.671875,-0.574219 0,-0.34 0.261875,-0.574219 0.671875,-0.574219 z m -5.75,0.107422 h 1.136719 v 2.332032 h 0.07031 c 0.219,-0.473 0.702969,-0.757813 1.292969,-0.757813 1.09,0 1.746094,0.831656 1.746094,2.222656 0,1.382 -0.664094,2.220703 -1.746094,2.220703 -0.609,0 -1.098125,-0.271234 -1.328125,-0.740234 h -0.07031 v 0.675781 h -1.101563 z m 7.789063,0.638672 h 1.138672 v 1.046875 h 0.914062 v 0.894531 h -0.002 -0.914063 v 1.9375 c 0,0.375 0.171594,0.548829 0.558594,0.548829 0.148,0 0.223031,-0.0056 0.332032,-0.01758 V 23.3125 c -0.141,0.027 -0.348407,0.05078 -0.566407,0.05078 -1.047,0 -1.460937,-0.339687 -1.460937,-1.179687 V 19.976562 H 17.3125 v -0.894531 h 0.683594 z m -2.609375,1.003906 h 1.136719 v 4.308594 H 15.386719 Z M 12.3125,19.921875 c -0.598,0 -0.977469,0.488437 -0.980469,1.273437 0.004,0.781 0.379469,1.269532 0.980469,1.269532 0.605,0 0.972656,-0.484438 0.972656,-1.273438 0,-0.785 -0.370656,-1.269531 -0.972656,-1.269531 z"
         inkscape:connector-curvature="0" />
    </g>
    <g
       style="fill:#000000"
       id="g991"
       transform="matrix(5.4155844,0,0,5.4155844,704.48052,404.48052)">
      <path
         id="path980"
         d="M 6,4 C 4.895,4 4,4.895 4,6 v 18 c 0,1.105 0.895,2 2,2 h 18 c 1.105,0 2,-0.895 2,-2 V 6 C 26,4.895 25.105,4 24,4 Z m 5.552734,3.1113281 c 1.421,0 2.53861,0.8305781 2.72461,2.0175781 h -1.751953 c -0.112,-0.3859999 -0.497563,-0.6347656 -0.976563,-0.6347656 -0.869,0 -1.421422,0.8971719 -1.357422,2.2011714 h 0.0918 c 0.312,-0.659 0.947672,-1.023437 1.763672,-1.023437 1.333,0 2.318359,0.990125 2.318359,2.328125 0,1.484 -1.166406,2.533203 -2.816406,2.533203 -1.002,0 -1.822078,-0.400578 -2.330078,-1.142578 -0.474,-0.625 -0.7226563,-1.504062 -0.7226562,-2.539063 0,-2.3099995 1.1666406,-3.7402339 3.0566402,-3.7402339 z m 6.640625,0.1914063 h 2.486329 v 4.5078126 h 0.878906 v 1.394531 h -0.878906 v 1.144531 h -1.695313 v -1.144531 h -3.457031 v -1.498047 c 0.64,-1.226 1.450015,-2.5592966 2.666015,-4.4042966 z m 0.746094,1.2792968 c -0.6,0.927 -1.074234,1.7281248 -1.865234,3.2031248 v 0.08789 h 1.953125 V 8.5820312 Z m -7.40625,2.3710938 c -0.63,0 -1.107422,0.474844 -1.107422,1.089844 0,0.625 0.482422,1.113281 1.107422,1.113281 0.625,0 1.113281,-0.483516 1.113281,-1.103516 0,-0.625 -0.479281,-1.099609 -1.113281,-1.099609 z m 4.423828,6.335937 c 0.406,0 0.671875,0.234219 0.671875,0.574219 0,0.336 -0.265875,0.574219 -0.671875,0.574219 -0.41,0 -0.671875,-0.238219 -0.671875,-0.574219 0,-0.34 0.261875,-0.574219 0.671875,-0.574219 z m -5.75,0.107422 h 1.136719 v 2.332032 h 0.07031 c 0.219,-0.473 0.702969,-0.757813 1.292969,-0.757813 1.09,0 1.746094,0.831656 1.746094,2.222656 0,1.382 -0.664094,2.220703 -1.746094,2.220703 -0.609,0 -1.098125,-0.271234 -1.328125,-0.740234 h -0.07031 v 0.675781 h -1.101563 z m 7.789063,0.638672 h 1.138672 v 1.046875 h 0.914062 v 0.894531 h -0.002 -0.914063 v 1.9375 c 0,0.375 0.171594,0.548829 0.558594,0.548829 0.148,0 0.223031,-0.0056 0.332032,-0.01758 V 23.3125 c -0.141,0.027 -0.348407,0.05078 -0.566407,0.05078 -1.047,0 -1.460937,-0.339687 -1.460937,-1.179687 V 19.976562 H 17.3125 v -0.894531 h 0.683594 z m -2.609375,1.003906 h 1.136719 v 4.308594 H 15.386719 Z M 12.3125,19.921875 c -0.598,0 -0.977469,0.488437 -0.980469,1.273437 0.004,0.781 0.379469,1.269532 0.980469,1.269532 0.605,0 0.972656,-0.484438 0.972656,-1.273438 0,-0.785 -0.370656,-1.269531 -0.972656,-1.269531 z"
         inkscape:connector-curvature="0" />
    </g>
    <g
       style="clip-rule:evenodd;fill-rule:evenodd;image-rendering:optimizeQuality;shape-rendering:geometricPrecision;text-rendering:geometricPrecision"
       id="g1026"
       transform="matrix(0.40061199,0,0,0.40061199,52.02242,19.076997)">
      <g
         id="Laag_x0020_1">
  <path
   d="m 1965,7 v 56 c 0,4 1,3 7,3 5,0 3,-3 3,-7 V 25 l 20,30 c 2,-2 7,-11 10,-15 2,-3 8,-13 10,-15 v 41 c 7,1 10,1 10,-3 V 7 c 0,-4 -2,-4 -10,-3 -3,5 -19,29 -20,31 L 1975,4 c -7,0 -10,-1 -10,3 z"
   class="fil0"
   id="_10_M"
   inkscape:connector-curvature="0"
   style="fill:#1a3867" />

  <path
   d="m 1910,7 c 0,10 -1,10 5,9 3,0 6,0 9,0 1,9 0,35 0,46 0,4 1,3 7,3 6,0 4,-4 4,-9 0,-9 -1,-35 0,-40 h 14 c 1,-10 1,-13 -4,-13 h -33 c -3,0 -3,0 -3,3 z"
   class="fil0"
   id="_9_T"
   inkscape:connector-curvature="0"
   style="fill:#1a3867" />

  <path
   d="m 1636,9 v 305 c 0,4 2,5 5,5 h 44 c 3,0 4,-1 5,-2 V 108 l 134,211 c 9,1 37,0 48,0 4,0 6,-1 6,-5 V 7 c -2,-1 -3,-3 -7,-3 h -42 c -8,0 -6,10 -6,21 V 216 L 1689,5 c -11,-1 -32,0 -45,0 -5,0 -10,0 -10,5 z"
   class="fil0"
   id="_8_N"
   inkscape:connector-curvature="0"
   style="fill:#1a3867" />

  <path
   d="m 1464,60 c 6,-1 34,0 44,0 7,0 6,0 11,3 23,14 29,55 0,77 -4,3 -6,3 -11,3 -10,0 -37,1 -44,0 z M 1408,9 v 305 c 0,4 2,5 5,5 h 45 c 6,0 5,-5 5,-10 0,-15 -1,-107 0,-113 5,-1 48,0 57,0 12,0 31,-10 40,-17 16,-14 28,-29 35,-50 6,-20 6,-44 -2,-63 -7,-18 -14,-28 -30,-42 -6,-5 -21,-14 -28,-17 -13,-4 -10,-3 -24,-3 h -90 c -6,0 -13,-1 -13,5 z"
   class="fil0"
   id="_7_P"
   inkscape:connector-curvature="0"
   style="fill:#1a3867" />

  <polygon
   points="1230,319 1268,320 1378,4 1320,4 1249,207 1178,4 1120,4 "
   class="fil0"
   id="_6_V"
   style="fill:#1a3867" />

  <path
   d="m 886,319 c 6,0 38,1 41,0 5,-3 3,-16 3,-22 V 123 c 2,2 26,45 28,49 l 28,49 c 5,8 9,16 14,25 l 28,49 c 5,8 9,17 14,25 7,1 26,1 33,0 6,-1 5,-6 5,-12 V 56 c 0,-5 1,-11 -3,-13 -3,-1 -28,-1 -33,-1 -7,0 -9,1 -9,8 1,55 0,113 0,168 -2,-3 -4,-7 -6,-11 -2,-4 -4,-7 -6,-11 L 986,130 C 973,108 962,86 949,64 945,57 941,49 936,42 h -50 c -1,8 0,231 0,263 0,8 -1,10 3,15 z"
   class="fil1"
   id="_5_N"
   inkscape:connector-curvature="0"
   style="fill:#ed7f22" />

  <path
   d="m 644,46 v 269 c 0,3 1,5 5,5 h 177 c 4,0 6,-3 6,-7 0,-46 3,-42 -12,-42 H 715 c -6,0 -13,2 -13,-5 0,-9 -1,-62 1,-66 4,-1 58,-1 70,-1 7,0 18,2 18,-5 v -40 c -3,-2 -4,-3 -9,-3 h -73 c -5,0 -7,1 -7,-5 V 93 c 0,-3 1,-4 5,-4 3,0 6,0 9,0 h 105 c 7,0 11,1 11,-7 V 44 c -2,-1 -3,-3 -7,-3 H 649 c -3,0 -5,1 -5,5 z"
   class="fil1"
   id="_4_E"
   inkscape:connector-curvature="0"
   style="fill:#ed7f22" />

  <path
   d="m 482,86 c 7,-1 22,0 30,0 13,0 16,-1 25,5 13,7 22,20 22,38 0,11 -3,16 -7,23 -3,6 -9,12 -15,15 -10,5 -12,5 -26,5 -8,0 -22,1 -30,0 V 87 Z M 423,44 v 271 c 0,6 5,5 11,5 h 48 v -1 c 0,-2 1,-2 1,-9 0,-13 -1,-90 0,-95 5,-1 57,0 68,0 7,0 7,0 12,-2 14,-7 30,-17 38,-30 2,-3 4,-6 6,-8 18,-32 15,-70 -6,-100 -5,-7 -10,-12 -17,-18 -4,-3 -7,-4 -11,-7 -2,-1 -4,-2 -6,-3 -11,-7 -25,-4 -40,-4 h -87 c -7,0 -11,-1 -16,2 z"
   class="fil1"
   id="_3_P"
   inkscape:connector-curvature="0"
   style="fill:#ed7f22" />

  <path
   d="m 0,179 c 0,18 -1,28 4,47 3,14 8,32 15,45 1,2 1,3 2,5 1,2 2,3 3,5 l 12,19 c 8,11 19,23 29,31 3,2 5,5 8,7 l 18,12 c 0,-9 7,-49 9,-62 3,-30 5,-11 -9,-34 -7,-12 -11,-19 -15,-33 -7,-29 -4,-54 10,-80 l 7,-12 c 5,-7 19,-21 26,-26 9,-6 4,-4 16,-10 22,-11 34,-11 56,-11 10,0 28,5 38,9 8,3 15,8 21,12 5,3 17,14 21,20 4,6 6,7 11,16 11,19 16,44 13,66 -2,17 -7,32 -16,47 l -10,14 c -5,5 -3,3 -1,19 l 9,65 c 7,-3 28,-20 34,-26 21,-21 37,-44 47,-73 13,-40 14,-72 4,-114 -2,-8 -8,-26 -12,-33 L 338,83 c -2,-3 -3,-4 -5,-7 C 330,71 317,57 312,52 299,40 288,32 273,23 271,22 268,20 266,19 260,16 248,11 242,9 226,3 202,-1 184,-1 c -20,0 -39,4 -57,10 -6,2 -10,4 -16,7 -5,2 -10,5 -15,8 C 82,32 82,32 69,43 62,49 58,53 52,59 42,69 24,95 19,106 l -7,15 C 6,136 0,161 0,178 Z"
   class="fil1"
   id="_2_O"
   inkscape:connector-curvature="0"
   style="fill:#ed7f22" />

  <path
   d="m 126,185 c 0,11 0,17 4,28 3,7 3,7 8,14 7,9 14,13 25,18 l -23,124 h 88 L 205,244 c 3,-2 9,-4 15,-8 18,-14 26,-34 22,-58 -1,-4 -2,-6 -4,-10 -7,-18 -29,-34 -51,-34 -18,0 -28,2 -43,14 -3,3 -11,12 -12,16 -3,6 -7,13 -7,22 z"
   class="fil0"
   id="_1_Sleutelgat"
   inkscape:connector-curvature="0"
   style="fill:#1a3867" />

 </g>
    </g>
    <g
       id="g1032"
       style="fill:#0071c5"
       transform="matrix(2.9226806,0,0,2.9226806,646.66971,208.57835)">
      <path
         id="path1028"
         d="M 78.676,15.258 C 74.98,-2.79 39.938,-3.934 17.352,9.816 v 1.52 c 22.562,-11.602 54.566,-11.527 57.48,5.094 0.977,5.5 -2.121,11.23 -7.656,14.53 v 4.313 c 6.656,-2.441 13.484,-10.34 11.5,-20.015 M 37.62,46.848 C 22.04,48.285 5.797,46.02 3.52,33.844 2.406,27.84 5.145,21.473 8.773,17.516 V 15.402 C 2.238,21.132 -1.305,28.387 0.738,36.953 3.344,47.945 17.281,54.168 38.558,52.102 46.98,51.285 57.996,48.574 65.66,44.367 v -5.976 c -6.957,4.144 -18.457,7.57 -28.039,8.457"
         inkscape:connector-curvature="0" />
      <path
         id="path1030"
         d="m 64.398,12.633 h -4.085 v 18.195 c 0,2.133 1.03,3.988 4.085,4.285 z m -48.652,6.644 h -4.094 l -0.004,11.887 c 0,2.14 1.036,3.992 4.098,4.285 z m -4.094,-2.218 h 4.082 v -3.875 h -4.082 z m 28.563,18.203 c -3.305,0 -4.703,-2.301 -4.703,-4.567 V 14.91 h 4.047 v 4.363 h 3.05 v 3.274 h -3.05 v 7.898 c 0,0.926 0.437,1.438 1.402,1.438 h 1.648 v 3.379 H 40.215 M 50.96,22.355 c -1.386,0 -2.448,0.715 -2.901,1.676 -0.262,0.578 -0.36,1.031 -0.387,1.742 h 6.238 c -0.078,-1.742 -0.867,-3.418 -2.95,-3.418 m -3.288,6.18 c 0,2.07 1.293,3.598 3.586,3.598 1.797,0 2.683,-0.5 3.722,-1.528 l 2.504,2.387 c -1.605,1.586 -3.289,2.547 -6.254,2.547 -3.878,0 -7.59,-2.113 -7.59,-8.281 0,-5.274 3.247,-8.254 7.5,-8.254 4.325,0 6.81,3.488 6.81,8.07 v 1.461 H 47.671 M 26.746,22.547 c 1.188,0 1.684,0.586 1.684,1.539 v 11.2 h 4.05 V 24.061 c 0,-2.273 -1.21,-4.78 -4.77,-4.78 l -8.366,-0.005 v 16.008 h 4.05 V 22.547 Z"
         inkscape:connector-curvature="0" />
    </g>
  </g>
  <style
     id="style4696"
     type="text/css">
	.st0{fill:#2DBCAF;}
	.st1{fill:#5DC9E1;}
	.st2{fill:#FDDD00;}
	.st3{fill:#CE3262;}
	.st4{fill:#00ACD7;}
	.st5{fill:#FFFFFF;}
</style>
  <style
     id="style901"
     type="text/css">
	.st0{fill:#0091E2;}
</style>
</svg>
